<svg viewBox="0 0 32 32" fill="none" xmlns="http://www.w3.org/2000/svg">
<path d="M16.7375 16.7096C16.7375 17.3854 16.5179 17.926 16.0786 18.3314L5.99259 28.4175C5.45196 28.8905 4.89444 29.1271 4.32003 29.1271H2.34337C1.90411 29.1271 1.48175 28.9919 1.07628 28.7216C0.704601 28.4513 0.417394 28.1134 0.21466 27.7079C-0.15702 26.7956 0.0119254 25.9509 0.721496 25.1737L9.38839 16.4562C9.76007 16.2196 9.76007 15.9155 9.38839 15.5439L0.721496 6.87696C-0.0218636 6.20118 -0.190809 5.35645 0.21466 4.34278C0.383605 3.90352 0.670812 3.54873 1.07628 3.27842C1.48175 3.00811 1.90411 2.87296 2.34337 2.87296H4.32003C4.89444 2.87296 5.45196 3.10948 5.99259 3.58253L16.0786 13.6686C16.5179 14.1078 16.7375 14.6484 16.7375 15.2904V16.7096Z" fill="#F97316"/>
<path d="M32 26.7956C32 27.4376 31.7635 27.9951 31.2904 28.4682C30.8512 28.9074 30.3105 29.1271 29.6686 29.1271H14.5648C13.9229 29.1271 13.3653 28.9074 12.8923 28.4682C12.453 27.9951 12.2334 27.4376 12.2334 26.7956V25.4778C12.2334 24.8021 12.453 24.2445 12.8923 23.8053C13.3653 23.366 13.9229 23.1464 14.5648 23.1464H29.6686C30.3105 23.1464 30.8512 23.366 31.2904 23.8053C31.7635 24.2445 32 24.8021 32 25.4778V26.7956Z" fill="#F97316"/>
</svg>
